<svg xmlns="http://www.w3.org/2000/svg" viewBox="0 0 823.17 361.08"><defs><style>.cls-1{fill:#1d1d1b;}</style></defs><title>Asset 1</title><g id="Layer_2" data-name="Layer 2"><g id="Layer_1-2" data-name="Layer 1"><path class="cls-1" d="M270.56,149.17c14,0,24.23-4.8,31.13-12.74v9.82h66.22l19.43-27.58,14.43,20.47a47,47,0,0,1,32.79-4.46l-29.25-41.5L440.2,43.57v62.36c0,28.2,18,43.24,39.07,43.24,13.79,0,24.24-5,29.88-12.74v9.82h31.34V41.79H509.15v57c0,14.84-7.94,21.52-19.43,21.52-10,0-18.18-6.06-18.18-19V41.79h-66l-18.18,25.9-18.17-25.9H333.23l36.15,51.39L333,144.76v-103H301.69V51.6c-6.9-7.93-17.14-12.74-31.13-12.74-27.37,0-49.94,24-49.94,55.16S243.19,149.17,270.56,149.17Zm6.26-80.64c14.42,0,24.87,9.82,24.87,25.49s-10.45,25.49-24.87,25.49S252,109.69,252,94,262.41,68.53,276.82,68.53Z"/><path class="cls-1" d="M68.74,272.29c0,9-4.39,17.34-19,17.34-11.28,0-16.08-4.39-20.68-12.54L0,293.81c9.61,18.59,26.32,28.41,49.52,28.41,30.08,0,52.65-17.76,52.65-49.93V173.05H68.74Z"/><polygon class="cls-1" points="101.53 61.22 139.35 123.27 143.11 123.27 180.93 61.22 180.93 146.25 214.36 146.25 214.36 0 180.93 0 141.23 64.98 101.53 0 68.11 0 68.11 146.25 101.53 146.25 101.53 61.22"/><path class="cls-1" d="M559.29,108.85c0,29.25,11.91,41.58,52.86,37.4V117.83c-13.79.84-21.52,0-21.52-9v-37h21.52V41.79H590.63V12.54l-31.34,9.4V41.79H542.57V71.87h16.72Z"/><path class="cls-1" d="M187.41,224.65c-6.9-7.93-17.13-12.74-31.13-12.74-27.37,0-49.94,24-49.94,55.16s22.57,55.15,49.94,55.15c14,0,24.23-4.8,31.13-12.74v9.82h31.34V214.83H187.41Zm-24.86,67.91c-14.42,0-24.87-9.82-24.87-25.49s10.45-25.49,24.87-25.49,24.86,9.82,24.86,25.49S177,292.56,162.55,292.56Z"/><rect class="cls-1" x="710.55" y="214.83" width="31.34" height="104.46"/><path class="cls-1" d="M665.42,38.86c-30.71,0-55.36,24-55.36,55.16s24.65,55.15,55.36,55.15,55.37-24,55.37-55.15S696.14,38.86,665.42,38.86Zm0,79.81c-13.58,0-24-9.82-24-24.65s10.44-24.66,24-24.66,24,9.82,24,24.66S679,118.67,665.42,118.67Z"/><polygon class="cls-1" points="788.48 41.78 766.75 108.02 745.03 41.78 710.35 41.78 749 146.25 784.51 146.25 823.16 41.78 788.48 41.78"/><rect class="cls-1" x="668.76" y="166.78" width="31.34" height="152.52"/><path class="cls-1" d="M511.45,211.91c-13.79,0-24.24,5-29.88,12.74v-9.82H456.3a48.08,48.08,0,0,1-6.07,4.84V319.3h31.34v-57c0-14.83,7.94-21.52,19.43-21.52,10,0,18.18,6.06,18.18,19V319.3h31.34V255.16C550.52,227,532.55,211.91,511.45,211.91Z"/><path class="cls-1" d="M627,271.87c0,14.84-7.94,21.52-19.43,21.52-10,0-18.18-6.06-18.18-19V214.83H558V279c0,28.2,18,43.24,39.07,43.24,13.78,0,24.23-5,29.87-12.74v9.82h31.34V214.83H627Z"/><path class="cls-1" d="M408.45,224.9v94.4h31.34V224.9a47.15,47.15,0,0,1-31.34,0Z"/><path class="cls-1" d="M366.66,214.83v9.82c-6.89-7.93-17.13-12.74-31.13-12.74-18.67,0-35.1,11.19-43.66,28.19V212.75c-13.16,0-27.16,6.68-31.34,20.68v-18.6H229.19V319.3h31.34V272.08c0-19,15.53-24.95,28.1-24.17a61,61,0,0,0-3,19.16c0,31.13,22.56,55.15,49.93,55.15,14,0,24.24-4.8,31.13-12.74v51.6H398V219.67a48,48,0,0,1-6.06-4.84ZM341.8,292.56c-14.42,0-24.86-9.82-24.86-25.49s10.44-25.49,24.86-25.49,24.86,9.82,24.86,25.49S356.22,292.56,341.8,292.56Z"/><path class="cls-1" d="M443.25,194.77A44.64,44.64,0,0,0,448.79,182l-11.6-6.58a45.63,45.63,0,0,1-2.86,9.52L423.16,172.6c-2.68-2.94-4.76-5.19-4.76-8.57,0-2.94,2.34-5.1,5.8-5.1,3.9,0,6.32,2.51,7.88,6.57l11.86-6.83c-3.72-8.92-11.17-13.25-19.91-13.25-11.6,0-19.48,7.53-19.48,17.75a18.42,18.42,0,0,0,2.51,9.61,20.52,20.52,0,0,0-9.7,17.4c0,11.43,9.18,18.26,21.65,18.26a26.87,26.87,0,0,0,15.67-4.76l5.36,5.8,10.83-6.23Zm-23.12,1c-6.14,0-8.74-3-8.74-7.09a8.54,8.54,0,0,1,3.2-6.76l.52.52,11.08,11.95A12.76,12.76,0,0,1,420.13,195.8Z"/></g></g></svg>