<svg xmlns="http://www.w3.org/2000/svg" viewBox="0 0 744.56 83.7"><defs><style>.cls-1{fill:#fff;}</style></defs><title>Asset 1</title><g id="Layer_2" data-name="Layer 2"><g id="Layer_1-2" data-name="Layer 1"><g id="Layer_1-2-2" data-name="Layer 1-2"><path class="cls-1" d="M63,65.7H48.6V29.07L32.31,55.8H30.69L14.4,29.07V65.7H0V2.7H14.4l17.1,28,17.1-28H63Z"/><path class="cls-1" d="M114.87,20.7v45h-13.5V61.47C98.4,64.89,94,67,88,67,76.21,67,66.5,56.65,66.5,43.24s9.67-23.8,21.5-23.8c6,0,10.44,2.07,13.41,5.49V20.7Zm-13.5,22.5c0-6.75-4.5-11-10.71-11S80,36.45,80,43.2s4.5,11,10.71,11S101.37,50,101.37,43.2Z"/><path class="cls-1" d="M146.89,65.7l-8.37-11.88L130.15,65.7H114.67l16.11-22.86L115.21,20.7h15.48l7.83,11.16,7.83-11.16h15.48L146.26,42.84,162.37,65.7Z"/><path class="cls-1" d="M204.73,20.7v45h-13.5V61.47C188.8,64.8,184.3,67,178.36,67c-9.09,0-16.83-6.48-16.83-18.63V20.7H175V46.35c0,5.58,3.51,8.19,7.83,8.19,4.95,0,8.37-2.88,8.37-9.27V20.7Z"/><path class="cls-1" d="M226.84,33.66V49.59c0,3.87,3.33,4.23,9.27,3.87V65.7c-17.64,1.8-22.77-3.51-22.77-16.11V33.66h-7.2v-13h7.2V12.15l13.5-4.05V20.7h9.27v13Z"/><path class="cls-1" d="M236.42,43.2A23.85,23.85,0,1,1,260.32,67h-.05a23.59,23.59,0,0,1-23.85-23.33Zm34.2,0c0-6.39-4.5-10.62-10.35-10.62s-10.35,4.23-10.35,10.62,4.5,10.62,10.35,10.62S270.62,49.59,270.62,43.2Z"/><path class="cls-1" d="M328.23,20.7l-16.65,45h-15.3l-16.65-45h14.94l9.36,28.53,9.36-28.53Z"/><path class="cls-1" d="M390.6,68,385,62a28,28,0,0,1-16.27,5c-13,0-22.5-7.11-22.5-19a21.32,21.32,0,0,1,10.08-18.09,19.17,19.17,0,0,1-2.61-10c0-10.62,8.19-18.45,20.25-18.45,9.09,0,16.83,4.5,20.7,13.77l-12.33,7.11c-1.62-4.23-4.14-6.84-8.19-6.84-3.6,0-6,2.25-6,5.31,0,3.51,2.16,5.85,4.95,8.91l11.61,12.87a47.52,47.52,0,0,0,3-9.9l12.06,6.84A46.4,46.4,0,0,1,394,52.76l7.92,8.82ZM376.2,52.38,364.68,40l-.54-.54a8.89,8.89,0,0,0-3.33,7c0,4.23,2.7,7.38,9.09,7.38A13.26,13.26,0,0,0,376.2,52.38Z"/><path class="cls-1" d="M420.75,54.72l12.51-7.2c2,3.51,4.05,5.4,8.91,5.4,6.3,0,8.19-3.6,8.19-7.47V2.7h14.4V45.45C464.76,59.31,455,67,442.08,67,432.09,67,424.89,62.73,420.75,54.72Z"/><path class="cls-1" d="M515.82,20.7v45h-13.5V61.47c-3,3.42-7.38,5.49-13.41,5.49C477.12,67,467.4,56.61,467.4,43.2s9.72-23.76,21.51-23.76c6,0,10.44,2.07,13.41,5.49V20.7Zm-13.5,22.5c0-6.75-4.5-11-10.71-11s-10.71,4.23-10.71,11,4.5,11,10.71,11S502.32,50,502.32,43.2Z"/><path class="cls-1" d="M547.69,19.8V35.1c-5.57-.9-13.49,1.35-13.49,10.26V65.7H520.7v-45h13.5v8C536,22.68,542,19.8,547.69,19.8Z"/><path class="cls-1" d="M594.91,20.7v63h-13.5V61.47C578.44,64.89,574,67,568,67c-11.79,0-21.51-10.35-21.51-23.76s9.72-23.8,21.51-23.8c6,0,10.44,2.07,13.41,5.49V20.7Zm-13.5,22.5c0-6.75-4.5-11-10.71-11S560,36.45,560,43.2s4.5,11,10.71,11S581.41,50,581.41,43.2Z"/><path class="cls-1" d="M599.73,20.7h13.5v45h-13.5Z"/><path class="cls-1" d="M661.11,38.07V65.7h-13.5V40.05c0-5.58-3.51-8.19-7.83-8.19-4.95,0-8.37,2.88-8.37,9.27V65.7h-13.5v-45h13.5v4.23c2.43-3.33,6.93-5.49,12.87-5.49C653.37,19.44,661.11,25.92,661.11,38.07Z"/><path class="cls-1" d="M708.07,20.7v45h-13.5V61.47C692.14,64.8,687.64,67,681.7,67c-9.09,0-16.83-6.48-16.83-18.63V20.7h13.5V46.35c0,5.58,3.51,8.19,7.83,8.19,4.95,0,8.37-2.88,8.37-9.27V20.7Z"/><path class="cls-1" d="M712.9,0h13.5V65.7H712.9Z"/><path class="cls-1" d="M731.06,20.7h13.5v45h-13.5Z"/></g></g></g></svg>